<svg width="1421" height="803" fill="none" xmlns="http://www.w3.org/2000/svg"><path d="M380.579 792.543c68.682-8.324 135.185-23.245 203.677-32.295 97.644-9.21 197.495-9.72 296.575-.3 94.662 12.968 173.249 34.248 307.289 43.052 78.83 0 152.58-6.79 232.88-24.604V749H0v21.1c121.336 29.976 252.954 37.738 380.579 22.443zm0-784.603c68.682 6.32 135.185 17.649 203.677 24.52 97.644 6.993 197.495 7.38 296.575.228C975.493 22.841 1054.08 6.685 1188.12 0c78.83 0 152.58 5.155 232.88 18.68V41H0V24.98C121.336 2.22 252.954-3.674 380.579 7.94zM0 41h1421v708H0V41z" fill="#F3F2FF"/></svg>