<svg width="400" height="329" viewBox="0 0 400 329" fill="none" xmlns="http://www.w3.org/2000/svg">
<path d="M6.5 207.27V46.6083L41 8.22494H295C364.2 -10.1991 390.833 26.1372 395.5 46.6083V184.788C399.1 249.711 348 257.168 322 252.782V322.42L237.5 252.782C216.667 249.857 158.6 245.763 93 252.782C27.4 259.8 8 225.365 6.5 207.27Z" fill="#FFFEFE" stroke="black"/>
<path d="M235.536 260.66L235.398 260.548H235.22H55.6041C25.2039 260.547 0.5 236.631 0.5 207.27V53.7773C0.5 24.4159 25.2039 0.5 55.6041 0.5H344.396C374.796 0.5 399.5 24.4167 399.5 53.7773V207.27C399.5 236.631 374.796 260.547 344.396 260.547H329.644H329.144V261.047V321.149C329.144 324 327.435 326.602 324.744 327.811L324.942 328.252L324.744 327.811C323.716 328.273 322.619 328.5 321.528 328.5C319.758 328.5 318.01 327.906 316.61 326.764L235.536 260.66ZM313.092 304.648L313.908 305.313V304.26V253.196C313.908 249.151 317.304 245.844 321.527 245.844H344.396C366.364 245.844 384.264 228.555 384.264 207.27V53.7773C384.264 32.4909 366.364 15.2028 344.396 15.2028H55.6041C33.6361 15.2028 15.7359 32.4909 15.7359 53.7773V207.27C15.7359 228.555 33.6361 245.844 55.6041 245.844H238.185C239.987 245.844 241.728 246.46 243.103 247.58L313.092 304.648Z" fill="#844CBB" stroke="white"/>
</svg>
