<svg width="100" height="100" viewBox="0 0 100 100" fill="none" xmlns="http://www.w3.org/2000/svg">
<circle cx="50" cy="50" r="48" fill="#844CBB" stroke="#7510F7" stroke-width="4"/>
<g clip-path="url(#clip0_527_231)">
<path d="M73.25 40.7388H71.7V29.2245C71.7 27.0432 70.8835 24.9513 69.4301 23.4089C67.9767 21.8665 66.0054 21 63.95 21H26.75C24.6946 21 22.7233 21.8665 21.2699 23.4089C19.8165 24.9513 19 27.0432 19 29.2245V64.8276C18.999 65.1299 19.0546 65.4293 19.1634 65.7086C19.2722 65.9879 19.4322 66.2415 19.634 66.4547C19.8358 66.6679 20.0755 66.8365 20.3392 66.9508C20.6028 67.065 20.8852 67.1226 21.17 67.1202C21.451 67.12 21.7291 67.0602 21.988 66.9443C22.2469 66.8285 22.4813 66.6589 22.6776 66.4456L28.3 60.4777H40.7V62.1226C40.7 64.3038 41.5165 66.3958 42.9699 67.9382C44.4233 69.4806 46.3946 70.3471 48.45 70.3471H71.7L77.3212 76.324C77.5175 76.5377 77.7521 76.7076 78.0112 76.8237C78.2704 76.9398 78.5487 76.9997 78.83 76.9999C79.1146 77.0023 79.3968 76.9448 79.6603 76.8307C79.9238 76.7166 80.1633 76.5482 80.3651 76.3353C80.5669 76.1223 80.7269 75.869 80.8359 75.59C80.9449 75.3111 81.0006 75.0119 81 74.7099V48.9633C81 46.7821 80.1835 44.6901 78.7301 43.1477C77.2767 41.6053 75.3054 40.7388 73.25 40.7388ZM40.7 48.9633V57.1878H27.0164L26.1082 58.1517L22.1 62.4053V29.2245C22.1013 27.9162 22.5916 26.6618 23.4634 25.7366C24.3351 24.8115 25.5171 24.2912 26.75 24.2898H63.95C65.1829 24.2912 66.3649 24.8115 67.2366 25.7366C68.1084 26.6618 68.5987 27.9162 68.6 29.2245V40.7388H48.45C46.3946 40.7388 44.4233 41.6053 42.9699 43.1477C41.5165 44.6901 40.7 46.7821 40.7 48.9633ZM77.9 55.5172V72.2875L73.8942 68.0198L72.986 67.0534H48.45C47.2171 67.052 46.0351 66.5317 45.1634 65.6066C44.2916 64.6814 43.8013 63.427 43.8 62.1187V48.9633C43.8013 47.655 44.2916 46.4006 45.1634 45.4755C46.0351 44.5503 47.2171 44.03 48.45 44.0286H73.25C74.4829 44.03 75.6649 44.5503 76.5366 45.4755C77.4084 46.4006 77.8987 47.655 77.9 48.9633V55.5172ZM67.05 50.6134C67.05 51.0496 66.8867 51.468 66.596 51.7765C66.3053 52.085 65.9111 52.2583 65.5 52.2583H56.2C55.7889 52.2583 55.3947 52.085 55.104 51.7765C54.8133 51.468 54.65 51.0496 54.65 50.6134C54.65 50.1771 54.8133 49.7587 55.104 49.4503C55.3947 49.1418 55.7889 48.9685 56.2 48.9685H65.5C65.9102 48.9685 66.3038 49.1411 66.5943 49.4484C66.8848 49.7558 67.0487 50.1729 67.05 50.6082V50.6134ZM67.05 55.5481C67.05 55.9843 66.8867 56.4027 66.596 56.7112C66.3053 57.0197 65.9111 57.193 65.5 57.193H56.2C55.7889 57.193 55.3947 57.0197 55.104 56.7112C54.8133 56.4027 54.65 55.9843 54.65 55.5481C54.65 55.1118 54.8133 54.6934 55.104 54.385C55.3947 54.0765 55.7889 53.9032 56.2 53.9032H65.5C65.9102 53.9032 66.3038 54.0758 66.5943 54.3831C66.8848 54.6905 67.0487 55.1076 67.05 55.5429V55.5481ZM67.05 60.4828C67.05 60.919 66.8867 61.3374 66.596 61.6459C66.3053 61.9544 65.9111 62.1277 65.5 62.1277H56.2C55.7889 62.1277 55.3947 61.9544 55.104 61.6459C54.8133 61.3374 54.65 60.919 54.65 60.4828C54.65 60.0465 54.8133 59.6282 55.104 59.3197C55.3947 59.0112 55.7889 58.8379 56.2 58.8379H65.5C65.9102 58.8379 66.3038 59.0105 66.5943 59.3179C66.8848 59.6252 67.0487 60.0423 67.05 60.4777V60.4828Z" fill="white"/>
<path d="M73.25 40.7388H71.7V29.2245C71.7 27.0432 70.8835 24.9513 69.4301 23.4089C67.9767 21.8665 66.0054 21 63.95 21H26.75C24.6946 21 22.7233 21.8665 21.2699 23.4089C19.8165 24.9513 19 27.0432 19 29.2245V64.8276C18.999 65.1299 19.0546 65.4293 19.1634 65.7086C19.2722 65.9879 19.4322 66.2415 19.634 66.4547C19.8358 66.6679 20.0755 66.8365 20.3392 66.9508C20.6028 67.065 20.8852 67.1226 21.17 67.1202C21.451 67.12 21.7291 67.0602 21.988 66.9443C22.2469 66.8285 22.4813 66.6589 22.6776 66.4456L28.3 60.4777H40.7V62.1226C40.7 64.3038 41.5165 66.3958 42.9699 67.9382C44.4233 69.4806 46.3946 70.3471 48.45 70.3471H71.7L77.3212 76.324C77.5175 76.5377 77.7521 76.7076 78.0112 76.8237C78.2704 76.9398 78.5487 76.9997 78.83 76.9999C79.1146 77.0023 79.3968 76.9448 79.6603 76.8307C79.9238 76.7166 80.1633 76.5482 80.3651 76.3353C80.5669 76.1223 80.7269 75.869 80.8359 75.59C80.9449 75.3111 81.0006 75.0119 81 74.7099V48.9633C81 46.7821 80.1835 44.6901 78.7301 43.1477C77.2767 41.6053 75.3054 40.7388 73.25 40.7388ZM40.7 48.9633V57.1878H27.0164L26.1082 58.1517L22.1 62.4053V29.2245C22.1013 27.9162 22.5916 26.6618 23.4634 25.7366C24.3351 24.8115 25.5171 24.2912 26.75 24.2898H63.95C65.1829 24.2912 66.3649 24.8115 67.2366 25.7366C68.1084 26.6618 68.5987 27.9162 68.6 29.2245V40.7388H48.45C46.3946 40.7388 44.4233 41.6053 42.9699 43.1477C41.5165 44.6901 40.7 46.7821 40.7 48.9633ZM77.9 55.5172V72.2875L73.8942 68.0198L72.986 67.0534H48.45C47.2171 67.052 46.0351 66.5317 45.1634 65.6066C44.2916 64.6814 43.8013 63.427 43.8 62.1187V48.9633C43.8013 47.655 44.2916 46.4006 45.1634 45.4755C46.0351 44.5503 47.2171 44.03 48.45 44.0286H73.25C74.4829 44.03 75.6649 44.5503 76.5366 45.4755C77.4084 46.4006 77.8987 47.655 77.9 48.9633V55.5172ZM67.05 50.6134C67.05 51.0496 66.8867 51.468 66.596 51.7765C66.3053 52.085 65.9111 52.2583 65.5 52.2583H56.2C55.7889 52.2583 55.3947 52.085 55.104 51.7765C54.8133 51.468 54.65 51.0496 54.65 50.6134C54.65 50.1771 54.8133 49.7587 55.104 49.4503C55.3947 49.1418 55.7889 48.9685 56.2 48.9685H65.5C65.9102 48.9685 66.3038 49.1411 66.5943 49.4484C66.8848 49.7558 67.0487 50.1729 67.05 50.6082V50.6134ZM67.05 55.5481C67.05 55.9843 66.8867 56.4027 66.596 56.7112C66.3053 57.0197 65.9111 57.193 65.5 57.193H56.2C55.7889 57.193 55.3947 57.0197 55.104 56.7112C54.8133 56.4027 54.65 55.9843 54.65 55.5481C54.65 55.1118 54.8133 54.6934 55.104 54.385C55.3947 54.0765 55.7889 53.9032 56.2 53.9032H65.5C65.9102 53.9032 66.3038 54.0758 66.5943 54.3831C66.8848 54.6905 67.0487 55.1076 67.05 55.5429V55.5481ZM67.05 60.4828C67.05 60.919 66.8867 61.3374 66.596 61.6459C66.3053 61.9544 65.9111 62.1277 65.5 62.1277H56.2C55.7889 62.1277 55.3947 61.9544 55.104 61.6459C54.8133 61.3374 54.65 60.919 54.65 60.4828C54.65 60.0465 54.8133 59.6282 55.104 59.3197C55.3947 59.0112 55.7889 58.8379 56.2 58.8379H65.5C65.9102 58.8379 66.3038 59.0105 66.5943 59.3179C66.8848 59.6252 67.0487 60.0423 67.05 60.4777V60.4828Z" stroke="#FFF5F5"/>
</g>
<defs>
<clipPath id="clip0_527_231">
<rect width="62" height="64" fill="white" transform="translate(19 18)"/>
</clipPath>
</defs>
</svg>
