<svg width="102" height="102" viewBox="0 0 102 102" fill="none" xmlns="http://www.w3.org/2000/svg">
<path d="M16.6637 50.8439C16.6637 64.3736 24.5265 76.066 35.9281 81.6068L19.623 36.933C17.7265 41.184 16.6637 45.8884 16.6637 50.8439Z" fill="#844CBB"/>
<path d="M73.9204 49.119C73.9204 44.8946 72.403 41.9691 71.1015 39.692C69.3688 36.8764 67.7448 34.492 67.7448 31.6764C67.7448 28.5343 70.1278 25.6094 73.4846 25.6094C73.6361 25.6094 73.7799 25.6283 73.9275 25.6368C67.8462 20.0654 59.7441 16.6638 50.8452 16.6638C38.9038 16.6638 28.3978 22.7906 22.2859 32.0706C23.0878 32.0946 23.8436 32.1116 24.4856 32.1116C28.0608 32.1116 33.5952 31.6777 33.5952 31.6777C35.4378 31.5691 35.655 34.2755 33.8143 34.4933C33.8143 34.4933 31.9626 34.7112 29.9021 34.8192L42.3496 71.8436L49.8299 49.4091L44.5044 34.8179C42.6638 34.7099 40.92 34.492 40.92 34.492C39.0781 34.3841 39.294 31.5678 41.136 31.6764C41.136 31.6764 46.7808 32.1103 50.1395 32.1103C53.7141 32.1103 59.2491 31.6764 59.2491 31.6764C61.093 31.5678 61.3096 34.2742 59.4683 34.492C59.4683 34.492 57.6127 34.7099 55.5561 34.8179L67.9087 71.562L71.3181 60.1688C72.7958 55.441 73.9204 52.0452 73.9204 49.119Z" fill="#844CBB"/>
<path d="M51.4448 53.8338L41.1892 83.6348C44.2513 84.5349 47.4897 85.0273 50.8451 85.0273C54.8256 85.0273 58.6429 84.3392 62.196 83.0897C62.1043 82.9434 62.0211 82.7879 61.9528 82.6188L51.4448 53.8338Z" fill="#844CBB"/>
<path d="M80.8381 34.4446C80.9851 35.5334 81.0683 36.7021 81.0683 37.9594C81.0683 41.428 80.4205 45.3272 78.4693 50.2026L68.0283 80.3899C78.1903 74.4641 85.0254 63.4547 85.0254 50.8446C85.026 44.9018 83.508 39.3135 80.8381 34.4446Z" fill="#844CBB"/>
<path d="M50.8452 11C28.8751 11 11 28.8738 11 50.8439C11 72.8166 28.8751 90.6898 50.8452 90.6898C72.8146 90.6898 90.6924 72.8166 90.6924 50.8439C90.6917 28.8738 72.8146 11 50.8452 11ZM50.8452 88.8634C29.8826 88.8634 12.827 71.8078 12.827 50.8439C12.827 29.8813 29.882 12.827 50.8452 12.827C71.8072 12.827 88.8615 29.8813 88.8615 50.8439C88.8615 71.8078 71.8072 88.8634 50.8452 88.8634Z" fill="#844CBB"/>
</svg>
