<svg width="215" height="214" viewBox="0 0 215 214" fill="none" xmlns="http://www.w3.org/2000/svg">
<ellipse cx="107.5" cy="107" rx="107.5" ry="107" fill="#F3F2FF"/>
<path d="M214 107C214 165.538 166.323 213 107.5 213C48.6773 213 1 165.538 1 107C1 48.4622 48.6773 1 107.5 1C166.323 1 214 48.4622 214 107Z" stroke="black" stroke-opacity="0.16" stroke-width="2"/>
<g clip-path="url(#clip0_522_309)">
<path d="M114.552 151.362C114.552 154.77 111.264 157.531 107.219 157.531C103.185 157.531 99.8971 154.77 99.8971 151.362C99.8971 147.963 103.185 145.193 107.219 145.193C111.264 145.193 114.552 147.963 114.552 151.362Z" fill="white"/>
<path d="M128.788 31.1017C123.173 25.6003 114.525 23.1247 103.126 23.7398C93.1277 24.2775 85.6015 27.3432 80.7879 32.8546C80.1379 33.5998 79.5681 34.3825 79.0339 35.1802C83.8298 30.9641 90.6348 28.5886 99.3066 28.1234C110.706 27.5108 119.354 29.9864 124.969 35.4853C131.474 41.8594 132.94 51.1992 132.958 58.2785C134.121 59.7414 135.311 60.6641 136.302 61.2317C137.119 55.1902 138.021 40.1489 128.788 31.1017Z" fill="#CCA4F3"/>
<path d="M180.569 164.89C177.133 168.511 172.01 170.472 166.624 170.297L163.54 170.046V150.021H169.936V146.218H163.54V128.211C163.54 124.02 159.507 120.612 154.533 120.612H59.9158C54.9418 120.612 50.8968 124.02 50.8968 128.211V146.218H45.8783V150.021H50.8968V169.911L47.8371 170.287C42.3467 170.469 37.2956 168.491 33.8798 164.89C30.4431 161.269 29.2857 156.626 30.7162 152.144L43.1183 113.3C45.1008 107.073 50.2469 101.994 57.224 99.3563L84.0138 89.2188C84.4501 99.6864 94.6948 108.086 107.219 108.086C119.754 108.086 129.999 99.6864 130.435 89.2188L157.225 99.3563C164.202 101.992 169.336 107.071 171.319 113.3L183.73 152.144C185.163 156.623 184.006 161.269 180.569 164.89Z" fill="white"/>
<path d="M186.024 152.144L173.613 113.3C171.63 107.073 166.496 101.994 159.519 99.3562L129.289 87.2856C129.248 88.2684 129.094 89.2261 128.886 90.1689L151.497 99.3562C158.474 101.992 163.608 107.071 165.591 113.3L178.002 152.144C179.435 156.626 178.278 162.234 174.838 165.855C172.479 168.341 169.318 170.019 165.831 170.787V171.012L168.915 171.262C174.301 171.434 179.423 168.511 182.86 164.89C186.297 161.269 187.454 156.623 186.024 152.144Z" fill="#CCA4F3"/>
<path d="M28.6476 152.144L41.0587 113.3C43.0412 107.073 48.1754 101.994 55.1525 99.3562L85.3819 87.2856C85.4235 88.2684 85.5778 89.2261 85.7855 90.1689L63.1743 99.3562C56.1972 101.992 51.063 107.071 49.0805 113.3L36.6694 152.144C35.236 156.626 36.3934 162.234 39.833 165.855C42.1924 168.341 45.353 170.019 48.8401 170.787V171.012L45.7567 171.262C40.3702 171.434 35.2479 168.511 31.8112 164.89C28.3716 161.269 27.2142 156.623 28.6476 152.144Z" fill="#CCA4F3"/>
<path d="M93.5 44.5L79 62C81.4 92.4 102 94.6667 112 92C128.8 92.4 135.333 73.1667 136.5 63.5C129.7 59.9 125.667 51.3333 124.5 47.5C116.9 51.1 100.667 47 93.5 44.5Z" fill="#DCDCDC" stroke="black" stroke-width="2"/>
<path d="M107.218 141.387C100.698 141.387 95.392 145.868 95.392 151.362C95.392 156.856 100.698 161.337 107.218 161.337C113.75 161.337 119.057 156.856 119.057 151.362C119.057 145.868 113.75 141.387 107.218 141.387ZM107.218 157.531C103.185 157.531 99.897 154.77 99.897 151.362C99.897 147.963 103.185 145.193 107.218 145.193C111.263 145.193 114.552 147.963 114.552 151.362C114.552 154.77 111.263 157.531 107.218 157.531ZM107.218 141.387C100.698 141.387 95.392 145.868 95.392 151.362C95.392 156.856 100.698 161.337 107.218 161.337C113.75 161.337 119.057 156.856 119.057 151.362C119.057 145.868 113.75 141.387 107.218 141.387ZM107.218 157.531C103.185 157.531 99.897 154.77 99.897 151.362C99.897 147.963 103.185 145.193 107.218 145.193C111.263 145.193 114.552 147.963 114.552 151.362C114.552 154.77 111.263 157.531 107.218 157.531ZM107.218 141.387C100.698 141.387 95.392 145.868 95.392 151.362C95.392 156.856 100.698 161.337 107.218 161.337C113.75 161.337 119.057 156.856 119.057 151.362C119.057 145.868 113.75 141.387 107.218 141.387ZM107.218 157.531C103.185 157.531 99.897 154.77 99.897 151.362C99.897 147.963 103.185 145.193 107.218 145.193C111.263 145.193 114.552 147.963 114.552 151.362C114.552 154.77 111.263 157.531 107.218 157.531ZM107.218 141.387C100.698 141.387 95.392 145.868 95.392 151.362C95.392 156.856 100.698 161.337 107.218 161.337C113.75 161.337 119.057 156.856 119.057 151.362C119.057 145.868 113.75 141.387 107.218 141.387ZM107.218 157.531C103.185 157.531 99.897 154.77 99.897 151.362C99.897 147.963 103.185 145.193 107.218 145.193C111.263 145.193 114.552 147.963 114.552 151.362C114.552 154.77 111.263 157.531 107.218 157.531ZM188.086 151.159L175.675 112.314C173.337 104.985 167.288 98.9986 159.071 95.8903L129.702 84.7876C134.836 78.7636 138.021 70.719 138.068 61.8643C138.537 59.6638 142.149 41.0191 130.631 29.9538C124.615 24.1699 115.608 21.5442 103.874 22.1619C93.4808 22.712 85.5955 25.9278 80.4405 31.7218C70 43.4347 74.5971 61.3442 74.79 62.0969C74.9384 62.677 75.4073 63.1597 76.0394 63.4097C76.1195 63.4397 76.1878 63.4572 76.256 63.4772C76.6567 71.7218 79.7728 79.1762 84.6102 84.8351L55.378 95.8903C47.1633 98.9986 41.1121 104.985 38.7617 112.314L26.3654 151.159C24.5551 156.818 26.0093 162.687 30.3659 167.266C34.7077 171.842 41.1833 174.325 48.1397 174.082C48.2198 174.082 48.3 174.072 48.3801 174.062L50.8997 173.745V174.518C50.8997 178.709 54.9447 182.117 59.9186 182.117H154.536C159.51 182.117 163.543 178.709 163.543 174.518V173.852L166.306 174.085C166.627 174.095 166.935 174.105 167.256 174.105C173.844 174.105 179.94 171.642 184.089 167.268C188.43 162.687 189.885 156.818 188.086 151.159ZM78.6985 58.7861C77.8853 53.6973 76.9802 41.9093 84.0493 33.9899C88.3822 29.1336 95.1546 26.4305 104.15 25.9553C114.406 25.4152 122.188 27.5958 127.239 32.4445C135.545 40.419 134.732 53.6773 133.999 58.9961C131.753 57.7408 128.372 54.545 127.111 46.5605C126.995 45.8953 126.494 45.3252 125.77 45.0651C125.482 44.9601 125.173 44.9101 124.876 44.9101C124.408 44.9101 123.948 45.0351 123.559 45.2677C116.855 49.3412 100.298 44.64 94.4868 42.477C93.4897 42.1094 92.3204 42.3895 91.715 43.1521L79.3751 58.486L78.6985 58.7861ZM80.7254 62.1744L81.9749 61.6243C82.2954 61.4792 82.5832 61.2667 82.788 61.0066L94.4067 46.5705C99.5973 48.3284 113.943 52.6145 123.17 49.6988C125.393 58.9111 130.631 62.0294 133.53 63.0621C132.901 79.0236 121.303 91.7768 107.141 91.7768C92.7121 91.7793 80.954 78.541 80.7254 62.1744ZM125.942 88.5335C125.93 97.2232 117.543 104.29 107.218 104.29C96.9619 104.29 88.6196 97.3082 88.5068 88.686C93.6974 92.9921 100.149 95.5803 107.138 95.5803C114.219 95.5828 120.73 92.9371 125.942 88.5335ZM159.038 174.515C159.038 176.611 157.02 178.318 154.536 178.318H59.9157C57.4287 178.318 55.4018 176.611 55.4018 174.515V128.208C55.4018 126.113 57.4287 124.405 59.9157 124.405H154.533C157.02 124.405 159.035 126.113 159.035 128.208V174.515H159.038ZM180.569 164.89C177.132 168.511 172.01 170.471 166.624 170.296L163.54 170.046V150.021H169.936V146.218H163.54V128.211C163.54 124.02 159.507 120.612 154.533 120.612H59.9157C54.9418 120.612 50.8967 124.02 50.8967 128.211V146.218H45.8783V150.021H50.8967V169.911L47.837 170.286C42.3467 170.469 37.2956 168.491 33.8797 164.89C30.4431 161.269 29.2857 156.626 30.7161 152.144L43.1183 113.3C45.1007 107.073 50.2468 101.994 57.2239 99.3562L84.0137 89.2187C84.4499 99.6863 94.6946 108.086 107.218 108.086C119.754 108.086 129.999 99.6863 130.435 89.2187L157.225 99.3562C164.202 101.992 169.336 107.071 171.318 113.3L183.73 152.144C185.163 156.623 184.006 161.269 180.569 164.89ZM107.218 141.387C100.698 141.387 95.392 145.868 95.392 151.362C95.392 156.856 100.698 161.337 107.218 161.337C113.75 161.337 119.057 156.856 119.057 151.362C119.057 145.868 113.75 141.387 107.218 141.387ZM107.218 157.531C103.185 157.531 99.897 154.77 99.897 151.362C99.897 147.963 103.185 145.193 107.218 145.193C111.263 145.193 114.552 147.963 114.552 151.362C114.552 154.77 111.263 157.531 107.218 157.531ZM107.218 141.387C100.698 141.387 95.392 145.868 95.392 151.362C95.392 156.856 100.698 161.337 107.218 161.337C113.75 161.337 119.057 156.856 119.057 151.362C119.057 145.868 113.75 141.387 107.218 141.387ZM107.218 157.531C103.185 157.531 99.897 154.77 99.897 151.362C99.897 147.963 103.185 145.193 107.218 145.193C111.263 145.193 114.552 147.963 114.552 151.362C114.552 154.77 111.263 157.531 107.218 157.531ZM107.218 141.387C100.698 141.387 95.392 145.868 95.392 151.362C95.392 156.856 100.698 161.337 107.218 161.337C113.75 161.337 119.057 156.856 119.057 151.362C119.057 145.868 113.75 141.387 107.218 141.387ZM107.218 157.531C103.185 157.531 99.897 154.77 99.897 151.362C99.897 147.963 103.185 145.193 107.218 145.193C111.263 145.193 114.552 147.963 114.552 151.362C114.552 154.77 111.263 157.531 107.218 157.531Z" fill="#844CBB"/>
</g>
<defs>
<clipPath id="clip0_522_309">
<rect width="189.935" height="160.04" fill="white" transform="translate(12.2539 22.0745)"/>
</clipPath>
</defs>
</svg>
