<svg width="1421" height="3090" fill="none" xmlns="http://www.w3.org/2000/svg"><path d="M380.579 3049.76c68.682-32.03 135.185-89.45 203.677-124.27 97.644-35.44 197.495-37.4 296.575-1.16 94.662 49.91 173.249 131.79 307.289 165.67 78.83 0 152.58-26.13 232.88-94.68V2882.2H0v81.2c121.336 115.35 252.954 145.22 380.579 86.36zm0-3019.209c68.682 24.322 135.185 67.915 203.677 94.355 97.644 26.911 197.495 28.4 296.575.879C975.493 87.895 1054.08 25.723 1188.12 0c78.83 0 152.58 19.837 232.88 71.884v85.887H0v-61.65c121.336-87.58 252.954-110.256 380.579-65.57z" fill="#F3F2FF"/><path d="M0 157.771h1421V2882.2H0V157.771z" fill="#F3F2FF"/></svg>