<svg width="102" height="102" viewBox="0 0 102 102" fill="none" xmlns="http://www.w3.org/2000/svg">
<path d="M74.4483 91H27.5517C18.4111 91 11 83.5889 11 74.4483V27.5517C11 18.4111 18.4111 11 27.5517 11H74.4483C83.5889 11 91 18.4111 91 27.5517V74.4483C91 83.5889 83.5889 91 74.4483 91Z" fill="#844CBB"/>
<path d="M45.4828 67.5524C45.3269 67.5524 45.1669 67.5247 45.0111 67.4682C44.2965 67.2076 43.9256 66.4171 44.1876 65.7013L55.2222 35.3565C55.4815 34.6406 56.2705 34.2723 56.989 34.5317C57.7036 34.7923 58.0745 35.5827 57.8125 36.2985L46.778 66.6433C46.5751 67.2049 46.0455 67.5524 45.4828 67.5524Z" fill="white"/>
<path d="M38.5863 67.5519C35.5434 67.5519 33.0691 65.0774 33.0691 62.0347V55.7092L29.3353 51.9755C28.7959 51.4361 28.7959 50.5644 29.3353 50.0251L33.0691 46.2914V39.9659C33.0691 36.9231 35.5436 34.4487 38.5863 34.4487C39.3491 34.4487 39.9656 35.0667 39.9656 35.8281C39.9656 36.5895 39.3491 37.2075 38.5863 37.2075C37.0648 37.2075 35.8277 38.4447 35.8277 39.9661V46.8626C35.8277 47.2281 35.6828 47.5798 35.4236 47.8378L32.2606 51.0002L35.4234 54.163C35.6828 54.4209 35.8275 54.7727 35.8275 55.1381V62.0347C35.8275 63.5561 37.0647 64.7933 38.5861 64.7933C39.3489 64.7933 39.9655 65.4113 39.9655 66.1727C39.9655 66.9339 39.3489 67.5519 38.5863 67.5519Z" fill="white"/>
<path d="M63.4138 67.5517C62.651 67.5517 62.0344 66.9337 62.0344 66.1723C62.0344 65.4109 62.651 64.793 63.4138 64.793C64.9352 64.793 66.1724 63.5558 66.1724 62.0344V55.1378C66.1724 54.7709 66.3172 54.4192 66.5779 54.1612L69.7477 51L66.578 47.8386C66.3174 47.5806 66.1726 47.2289 66.1726 46.862V39.9655C66.1726 38.4441 64.9354 37.2069 63.414 37.2069C62.6511 37.2069 62.0346 36.5889 62.0346 35.8275C62.0346 35.0661 62.6511 34.4481 63.414 34.4481C66.4568 34.4481 68.9311 36.9227 68.9311 39.9653V46.2894L72.6746 50.0231C72.934 50.2811 73.0801 50.6328 73.0801 50.9997C73.0801 51.3666 72.9338 51.7183 72.6746 51.9762L68.9311 55.71V62.0341C68.9311 65.0772 66.4566 67.5517 63.4138 67.5517Z" fill="white"/>
</svg>
