<svg width="102" height="102" viewBox="0 0 102 102" fill="none" xmlns="http://www.w3.org/2000/svg">
<path fill-rule="evenodd" clip-rule="evenodd" d="M1.9009 78.12H11.339C10.6417 77.91 10.1188 77.13 10.1188 76.22V20.96C10.1271 19.89 10.8576 19 11.754 19H79.9707C80.8589 19 81.5977 19.89 81.5977 20.96V37.62L79.041 38.56V29.08H12.9079V75.66H79.041V63.64L79.8877 63.47C80.4604 63.35 81 63.13 81.4898 62.82L81.606 62.79V76.2C81.606 77.11 81.083 77.88 80.3857 78.1H90.2555C91.3014 78.1 92.1564 79.13 92.1564 80.39C92.1564 81.66 91.3014 82.68 90.2555 82.68H1.9009C0.854991 82.7 0 81.67 0 80.4C0 79.15 0.854991 78.12 1.9009 78.12ZM65.5687 54.1C66.4402 55.23 67.4115 57.54 67.2205 59.54L79.0078 57.13C78.5678 53.11 77.5883 49.42 75.6957 46.29C71.8773 49.41 69.6859 51.35 65.5687 54.1ZM46.5015 65.68C52.0133 63.71 57.907 70.76 62.597 65.29C63.8421 63.84 64.6888 61.5 64.5809 59.31C64.5311 58.43 64.3401 57.58 63.95 56.83C63.7757 56.5 63.5681 56.19 63.3274 55.88C60.3225 52.19 55.6657 53.65 52.6027 56.48C49.7887 59.09 47.7716 62.97 46.5015 65.68ZM77.2646 45.93C79.041 49.32 80.1616 52.84 80.5684 56.51L99.7185 44C101.304 43.14 102.317 42.26 101.91 39.76C101.594 38.94 101.163 38.39 100.615 38.11C100.075 37.83 99.428 37.83 98.6643 38.11L77.2646 45.93ZM18.5774 39.68H73.5707C73.8944 39.68 74.185 39.82 74.4091 40.06C73.7533 40.26 73.1225 40.6 72.5414 41.12L72.4252 41.23C69.7938 43.38 71.6117 41.88 70.9227 42.45L70.5077 42.8H19.8723V58.93H43.6875C43.0816 60.02 42.5503 61.08 42.0938 62.03H18.5774C17.8635 62.03 17.2907 61.33 17.2907 60.48V41.23C17.2907 40.38 17.8635 39.68 18.5774 39.68ZM66.3904 36.07C65.6766 36.07 65.1038 35.38 65.1038 34.52C65.1038 33.66 65.6849 32.97 66.3904 32.97H71.5785C72.2924 32.97 72.8651 33.66 72.8651 34.52C72.8651 35.38 72.2924 36.07 71.5785 36.07H66.3904ZM53.5739 36.07C52.86 36.07 52.2873 35.38 52.2873 34.52C52.2873 33.66 52.8683 32.97 53.5739 32.97H58.7619C59.4758 32.97 60.0486 33.66 60.0486 34.52C60.0486 35.38 59.4675 36.07 58.7619 36.07H53.5739ZM40.749 36.07C40.0352 36.07 39.4624 35.38 39.4624 34.52C39.4624 33.66 40.0352 32.97 40.749 32.97H45.9371C46.651 32.97 47.2237 33.66 47.2237 34.52C47.2237 35.38 46.651 36.07 45.9371 36.07H40.749ZM20.8352 23.71C21.5491 23.71 22.1301 24.41 22.1301 25.27C22.1301 26.13 21.5491 26.83 20.8352 26.83C20.1213 26.83 19.5403 26.13 19.5403 25.27C19.5403 24.41 20.1296 23.71 20.8352 23.71ZM25.2181 23.71C25.932 23.71 26.5047 24.41 26.5047 25.27C26.5047 26.13 25.9237 26.83 25.2181 26.83C24.5125 26.83 23.9231 26.13 23.9231 25.27C23.9231 24.41 24.5042 23.71 25.2181 23.71ZM16.4606 23.71C17.1745 23.71 17.7556 24.41 17.7556 25.27C17.7556 26.13 17.1745 26.83 16.4606 26.83C15.7468 26.83 15.1657 26.13 15.1657 25.27C15.1657 24.41 15.7468 23.71 16.4606 23.71ZM43.397 78.98H48.7511C49.2574 78.98 49.6642 79.48 49.6642 80.08C49.6642 80.69 49.2491 81.18 48.7511 81.18H43.397C42.8907 81.18 42.4839 80.68 42.4839 80.08C42.4839 79.46 42.8907 78.98 43.397 78.98Z" fill="#844CBB"/>
</svg>
